<svg xmlns="http://www.w3.org/2000/svg" width="246" height="24" fill="none"><path fill="#000" d="M246 21.097c-.134.411-.314.812-.392 1.233-.169.908-.456 1.215-1.333 1.22-3.114.012-6.23.012-9.346.01-.228 0-.454-.066-.892-.132.39-.304.618-.53.889-.684.674-.375.925-.976.978-1.7.013-.172.008-.345.008-.516V7.423c0-.207.011-.415-.012-.62-.078-.724-.357-1.312-1.066-1.634-.261-.118-.487-.314-.912-.595.826-.318 1.467-.167 2.085-.19.684-.025 1.37-.01 2.054-.004.633.004 1.267.02 1.908.031.004.535-.351.6-.604.722-.827.4-1.173 1-1.162 1.963.043 4.403.016 8.806.02 13.209 0 1.579.588 2.19 2.147 2.235.719.02 1.44-.03 2.157.01 1.214.073 2.019-.48 2.508-1.554.195-.427.39-.821.963-.726v.825l.002.002ZM210.438 13.902c-.054.458-.123.79-.128 1.125-.01 1.787-.014 3.577 0 5.365.005.373.083.749.15 1.118.105.578.411.993.974 1.222.302.124.571.324.98.562-.74.448-1.391.22-1.999.253-.682.038-1.368.009-2.054.009h-1.951c.037-.55.345-.704.657-.834.807-.335 1.039-1.026 1.128-1.804.026-.238.01-.481.01-.723V7.606c0-.206 0-.412-.004-.619-.023-.906-.378-1.583-1.276-1.903-.234-.083-.583-.083-.497-.574.575-.301 1.226-.09 1.849-.122.682-.033 1.37-.04 2.052 0 .62.038 1.284-.214 1.9.203-.113.45-.501.493-.787.609-.567.229-.869.633-.973 1.217-.013.069-.033.137-.033.203-.029 1.987-.06 3.975-.074 5.963 0 .12.113.24.189.394.205.013.406.037.606.037 2.84.002 5.681.007 8.522 0 .887 0 1.013-.111 1.021-1.005.018-1.651.008-3.302.004-4.952-.002-.9-.335-1.593-1.21-1.965-.209-.089-.38-.264-.645-.454.169-.113.267-.237.368-.237 1.779-.009 3.558-.004 5.334.002.062 0 .121.053.189.087.101.454-.298.505-.544.596-.961.353-1.206 1.038-1.198 2.019.039 4.574.031 9.148.005 13.722-.007.906.137 1.629 1.096 1.973.261.093.465.345.738.558-.888.276-5.121.258-5.865-.015.095-.375.376-.526.709-.617.608-.167.879-.6.945-1.2.023-.204.076-.406.076-.61.006-1.994.004-3.99.004-5.984 0-.103.004-.209-.008-.31-.076-.561-.22-.693-.789-.722-.205-.01-.411 0-.616 0h-8.859l.004.002ZM191.242 4.397c1.851 0 3.657-.005 5.462.008.107 0 .214.134.425.272-.297.19-.495.388-.731.456-.846.244-1.041.905-1.128 1.654-.016.136 0 .274 0 .413v13.52c0 .274-.024.561.046.82.133.49.258.984.91 1.105.297.056.554.339.961.603-.318.155-.481.3-.647.304a62.07 62.07 0 0 1-2.773-.005c-.6-.014-.725-.138-.762-.724-.033-.528-.021-1.06-.033-1.819-.779 1.053-1.512 1.755-2.49 2.242a7.09 7.09 0 0 1-4.073.7c-2.052-.246-3.761-1.177-4.921-2.96-.452-.696-.709-1.46-.849-2.295-.228-1.369-.195-2.737-.197-4.108-.004-2.306 0-4.61 0-6.915 0-.241.014-.483-.004-.722-.066-.81-.187-1.577-1.154-1.835-.233-.062-.424-.285-.834-.578 1.191-.287 2.169-.126 3.126-.138.972-.013 1.953-.09 2.982.055-.115.558-.519.653-.842.778-.715.28-.969.801-.967 1.53.006 3.647-.031 7.292.02 10.94.025 1.796.709 3.36 2.176 4.467 1.031.776 2.263 1.009 3.496.778 1.023-.192 2.013-.56 2.824-1.323a5.275 5.275 0 0 0 1.703-3.825c.08-3.679.035-7.36.022-11.041-.002-.892-.336-1.315-1.189-1.55-.365-.101-.665-.184-.561-.807h.002ZM82.031 4.617c.806-.295 3.729-.311 4.52-.074.104.4-.138.572-.465.65-.709.172-.998.663-1.05 1.342-.03.41-.065.822-.065 1.232-.006 4.95-.004 9.9-.008 14.852 0 .363-.031.728-.046 1.058-.523.143-.741-.136-.971-.392-.733-.813-1.469-1.622-2.196-2.44-.978-1.098-1.945-2.204-2.92-3.304-2.295-2.584-4.588-5.169-6.888-7.747-.38-.427-.8-.82-1.313-1.344-.026.428-.053.661-.053.894 0 3.61-.006 7.219.008 10.829 0 .44.117.877.164 1.319.064.592.261 1.046.914 1.21.323.08.615.282.71.658-.679.252-3.583.276-4.405.043-.098-.4.144-.56.469-.648.607-.167.893-.574.944-1.193.041-.51.173-1.016.175-1.521.014-3.92.008-7.838.01-11.758 0-1.434-.704-2.458-2.041-2.968-.36-.138-.624-.448-.791-.93 1.088-.007 2.14-.044 3.186.04.256.021.525.3.727.519a422.959 422.959 0 0 1 3.652 4.03c1.39 1.553 2.779 3.11 4.16 4.674 1.782 2.02 3.557 4.05 5.398 6.145.088-.254.223-.462.223-.669-.022-2.37-.072-4.737-.1-7.107-.019-1.649-.029-3.3-.017-4.95.006-.949-.281-1.665-1.259-1.981-.224-.072-.404-.277-.672-.469ZM170.293 23.374c-.434.087-.682.176-.931.18-.821.016-1.643-.006-2.462 0-.551.004-.984-.205-1.348-.62-1.469-1.67-2.95-3.329-4.42-4.997-.793-.898-1.568-1.812-2.367-2.706-.219-.245-.493-.444-.852-.761 0 2.229-.033 4.29.016 6.35.021.84.276 1.625 1.214 1.964.224.08.384.33.713.627-.795.25-1.436.118-2.056.139-.684.022-1.37.035-2.052-.003-.618-.032-1.278.203-1.877-.185.108-.469.505-.502.79-.628.635-.276.964-.726.997-1.42.028-.582.125-1.16.125-1.742.012-3.852.01-7.703 0-11.555 0-.477-.117-.954-.111-1.43.012-.836-.505-1.224-1.167-1.515-.259-.114-.647-.066-.639-.516.641-.215 4.782-.256 5.768-.058.074.4-.224.574-.497.664-.906.306-1.175 1.07-1.199 1.86-.06 1.924-.011 3.85 0 5.776 0 .053.069.107.174.262.259-.198.54-.37.766-.597 1.399-1.412 2.784-2.834 4.172-4.254.645-.66 1.3-1.315 1.923-1.998.448-.491.394-.687-.15-1.044a5.055 5.055 0 0 1-.542-.424c-.029-.026.006-.128.012-.194.762-.241 4.258-.237 5.135.05-.244.163-.405.349-.591.382-1.169.206-2.042.858-2.854 1.692-1.819 1.866-3.687 3.685-5.533 5.524-.218.217-.421.446-.668.708.538.638 1.05 1.265 1.586 1.872 1.766 2 3.541 3.994 5.31 5.992.18.205.324.442.505.644.479.541.98 1.036 1.744 1.183.456.087.877.301 1.366.78v-.002ZM26.61 5.55v7.809c.325.04.584.093.845.097.787.012 1.575.025 2.36-.006.402-.017.807-.105 1.201-.192.537-.12.947-.376 1.003-1.007.012-.145.156-.277.316-.545.183.262.403.431.407.604.033 1.099.033 2.2.006 3.299-.004.157-.207.31-.318.464-.142-.12-.386-.223-.407-.36-.144-.971-.828-1.202-1.633-1.22-1.193-.03-2.389-.009-3.669-.009-.045.301-.117.56-.117.817-.01 1.96-.016 3.92-.002 5.879.008 1.119.236 1.352 1.315 1.369.957.016 1.916-.009 2.874 0 1.35.012 2.265-.593 2.73-1.877.043-.12.143-.219.227-.34.561.831.346 2.1-.509 3.158-1.68.157-10.112.097-10.952-.11.382-.278.694-.516 1.017-.737.575-.394.866-.89.862-1.632-.024-4.642-.026-9.283 0-13.925.006-1.106-.337-1.87-1.479-2.14-.13-.031-.226-.203-.443-.411.316-.076.495-.159.673-.159 3.25-.004 6.501-.002 9.751.008.698.002.873.147.912.805.035.582.019 1.17-.018 1.753-.015.216-.152.423-.29.782-.138-.283-.263-.423-.27-.568-.046-1.14-.889-1.6-1.76-1.688-1.454-.15-2.935-.056-4.405-.054-.087 0-.171.1-.229.136h.002ZM107.467 20.317c.413 1.043.113 1.947-.255 2.828-.152.365-.503.415-.868.413-1.028-.008-2.055 0-3.08 0-2.086 0-4.175.006-6.262 0-.288 0-.575-.041-1.079-.083.448-.371.697-.658 1.009-.821.635-.335.817-.842.811-1.526-.02-2.097-.006-4.194-.006-6.293 0-2.545-.037-5.09.016-7.633.025-1.144-.281-1.949-1.46-2.254-.099-.027-.166-.176-.273-.293.32-.4.719-.277 1.066-.279 2.874-.006 5.749 0 8.623.006h1.368c.17 1.152.162 2.182-.179 3.268-.103-.18-.246-.347-.302-.541-.3-1.03-.885-1.627-1.931-1.678-1.433-.073-2.871-.03-4.309-.027-.093 0-.183.07-.329.132-.018.256-.051.522-.051.79-.004 1.994 0 3.99 0 5.984 0 .207 0 .413.012.62.023.324.208.526.526.516 1.325-.044 2.656.163 3.981-.149.684-.16 1.117-.462 1.22-1.18.012-.091.097-.172.199-.341.154.142.384.258.388.378.031 1.2.033 2.404.017 3.608 0 .128-.162.253-.314.474-.154-.25-.292-.396-.343-.57-.226-.77-.773-1.133-1.52-1.16a67.799 67.799 0 0 0-3.49-.016c-.526.008-.651.153-.672.696-.025.687-.006 1.375-.006 2.062v2.784c0 .207-.013.415.006.62.136 1.5.573 1.903 2.068 1.905.822 0 1.644-.02 2.463-.006 1.292.022 2.089-.667 2.627-1.77.083-.167.212-.309.321-.462l.008-.002Z"/><path fill="#000" fill-rule="evenodd" d="M47.203 14.9c.01-.103.019-.208.026-.315l-.004-.002c.842-.231 1.54.019 2.163.434 1.107.736 1.806 1.845 2.492 2.953.393.636.79 1.269 1.186 1.902.62.989 1.238 1.977 1.846 2.974.215.353.482.627.862.66 1.009.087 2.023.072 3.03.019.099-.632-.28-.797-.627-.898-.536-.155-.879-.508-1.162-.948-.155-.24-.312-.48-.469-.72-.48-.732-.96-1.465-1.396-2.223l-.075-.13c-.847-1.476-1.691-2.946-3.008-4.07a1.39 1.39 0 0 1-.247-.312c-.037-.056-.075-.114-.117-.171.054-.033.098-.062.137-.089.07-.046.122-.08.18-.1 2.364-.738 4.073-3.849 2.442-6.896-.912-1.7-2.523-2.487-4.392-2.567-1.563-.069-3.129-.052-4.694-.035-.556.006-1.112.012-1.667.014-.146 0-.29.043-.44.088-.07.02-.14.042-.212.059.05.447.329.54.593.629.051.017.102.034.151.054.645.258.939.706.937 1.426-.017 4.847-.019 9.693 0 14.54.004.753-.26 1.245-.955 1.521-.315.126-.584.324-.705.702.05.023.092.047.13.07.068.039.123.07.178.07 1.674.01 3.35.019 5.026.008.088 0 .175-.056.287-.13.062-.04.131-.086.213-.13a4.339 4.339 0 0 1-.236-.208c-.136-.127-.248-.231-.38-.275-.954-.317-1.161-1.02-1.143-1.936.024-1.156.02-2.313.015-3.47-.002-.63-.005-1.261-.002-1.892.001-.2.019-.4.037-.606Zm5.34-5.446c-.037-.494-.18-.942-.324-1.397l-.089-.284c-.252-.819-.764-1.418-1.485-1.868-1.06-.66-2.194-.592-3.48-.435v6.279c0 .489-.012.845.007 1.102.017.23.059.38.155.478.206.207.662.164 1.665.108 2.099-.117 3.586-1.337 3.56-3.777-.001-.07-.005-.138-.01-.206Z" clip-rule="evenodd"/><path fill="#000" d="m132.649 23.322.003-.002-.002.003-.001-.001Z"/><path fill="#000" fill-rule="evenodd" d="M132.649 23.322c-.099-.086-.184-.168-.262-.243-.149-.145-.272-.265-.419-.332-.818-.374-1.36-1.014-1.812-1.757-.145-.239-.287-.48-.43-.72-.327-.551-.654-1.103-1.008-1.637a37.62 37.62 0 0 1-.693-1.11c-.68-1.117-1.36-2.236-2.382-3.103a.597.597 0 0 1-.136-.217c-.015-.032-.028-.062-.042-.086a1.1 1.1 0 0 0 .033-.08c.013-.035.021-.055.035-.063l.075-.04c.154-.082.308-.165.469-.232 1.577-.663 2.44-1.97 2.58-3.559.289-3.267-1.65-5.507-4.996-5.732-1.503-.101-3.014-.076-4.525-.051-.612.01-1.223.02-1.834.022-.137 0-.273.032-.456.075-.104.024-.223.052-.366.08.111.089.201.17.28.24.148.131.257.228.384.278 1.006.392 1.316 1.115 1.306 2.18a661.088 661.088 0 0 0 0 13.507c.01 1.043-.357 1.7-1.263 2.124-.142.067-.264.175-.407.3-.073.065-.151.134-.24.204.089.039.158.073.213.101.089.045.143.072.198.072 1.674.01 3.35.021 5.026.009.109 0 .217-.064.352-.142.071-.042.15-.088.239-.13-.089-.072-.167-.145-.239-.212-.142-.133-.26-.242-.395-.274-.888-.208-1.075-.811-1.064-1.622.017-1.23.015-2.458.012-3.688-.001-.695-.002-1.39 0-2.086 0-.173.021-.346.046-.551.013-.109.028-.227.04-.359.114.01.223.016.327.021.214.01.409.02.596.068.996.256 1.828.817 2.407 1.65.627.896 1.207 1.828 1.788 2.759.212.34.425.682.64 1.022.199.314.394.632.588.949.36.586.72 1.172 1.107 1.74l.016.024c.277.404.577.843 1.181.833.384-.006.767-.005 1.15-.005.438 0 .876.001 1.313-.008.097-.001.193-.047.324-.11.069-.033.149-.07.244-.11ZM122.418 5.346a5.62 5.62 0 0 0-1.513.206v7.86h-.002c.072.006.145.01.217.015 1.876.122 3.554-.014 4.54-1.709 1.017-1.748.702-3.44-.401-4.894-.746-.982-1.684-1.463-2.841-1.478ZM8.603 13.176c.187.072.345.135.485.192.25.1.44.176.636.237 3.19.984 4.957 4.768 2.625 7.816a4.822 4.822 0 0 1-2.685 1.774c-1.037.268-2.07.386-3.138.371a225.942 225.942 0 0 0-3.589-.01c-.652.002-1.305.003-1.957.002-.165 0-.33-.018-.552-.043-.122-.013-.262-.029-.428-.044.16-.128.297-.246.423-.354.242-.21.44-.379.662-.503.525-.29.675-.749.696-1.283.015-.4.012-.8.01-1.2l-.002-.452V7.398c0-.072 0-.145.002-.217.002-.203.004-.407-.01-.609-.05-.704-.327-1.249-1.044-1.486a2.738 2.738 0 0 1-.54-.266C.174 4.807.17 4.759.165 4.687a1.865 1.865 0 0 0-.015-.144c.054-.017.109-.04.164-.064.113-.049.23-.099.345-.099.51-.002 1.02-.008 1.53-.013 1.51-.017 3.021-.034 4.528.042 1.34.066 2.582.6 3.634 1.476 1.81 1.505 1.949 5.373-.752 6.758-.159.081-.316.166-.522.278l-.474.255Zm-4.316.77-.004-.003c1.581-.132 3.06-.045 4.42.655.044.022.088.046.132.07 1.265.691 1.885 1.837 1.988 3.257a5.147 5.147 0 0 1-.384 2.404c-.573 1.375-1.656 1.943-2.983 2.184-.326.06-.664.047-1.003.033-.177-.006-.355-.014-.531-.01-.418.01-.862-.173-1.207-.483-.354-.315-.604-.762-.615-1.271a178.07 178.07 0 0 1-.009-5.029l.009-1.257c0-.104.045-.209.1-.334.028-.065.059-.137.087-.217Zm4.776-3.608.008-.03c.19-.702.06-1.38-.072-2.081l-.008-.043c-.315-1.651-1.985-3.11-4.145-2.774-.214.033-.379.105-.498.222a.775.775 0 0 0-.21.403c-.048.232-.059.475-.059.715-.004 1.715-.008 3.43.004 5.146.002.225.033.45.07.713.018.125.037.258.054.403l.142.001c.163.002.317.008.465.013.383.014.723.026 1.052-.025L5.873 13c1.552-.242 2.674-.777 3.19-2.662Z" clip-rule="evenodd"/><path fill="#000" d="M186.717 1.342c0 .74-.597 1.341-1.335 1.341-.737 0-1.335-.6-1.335-1.341S184.645 0 185.382 0c.738 0 1.335.6 1.335 1.342ZM191.852 1.342c0 .74-.597 1.341-1.335 1.341-.737 0-1.335-.6-1.335-1.341S189.78 0 190.517 0c.738 0 1.335.6 1.335 1.342Z"/></svg>