<svg xmlns="http://www.w3.org/2000/svg" width="113" height="12" fill="none"><path fill="#000" d="M.876 11h3.612c1.92 0 3.372-.672 3.372-2.46 0-1.044-.672-1.824-1.836-1.956.66-.096 1.5-.756 1.5-1.776 0-1.344-.984-2.28-2.712-2.28H.876V11Zm1.512-1.212V7.244h2.22c1.104 0 1.74.372 1.74 1.284 0 .924-.732 1.26-1.716 1.26H2.388Zm0-3.756V3.74h2.256C5.412 3.74 6 4.1 6 4.868c0 .828-.732 1.164-1.572 1.164h-2.04ZM9.149 11h6.036V9.788h-4.524V7.244h4.26V6.032h-4.26V3.74h4.428V2.528H9.15V11Zm7.43 0h1.476V7.424h2.388c.816 0 1.236.372 1.236 1.2V9.86c0 .336.024.792.348 1.14h1.632c-.432-.444-.492-.888-.492-1.332V8.36c0-1.044-.564-1.464-1.332-1.62.444-.096 1.356-.576 1.356-1.992 0-1.464-1.176-2.22-2.844-2.22H16.58V11Zm1.476-4.788V3.74h2.184c.96 0 1.476.432 1.476 1.164 0 .612-.336 1.308-1.44 1.308h-2.22ZM24.841 11h1.356V4.016L30.337 11H32.4V2.528h-1.356v6.996l-4.176-6.996H24.84V11Zm9.316 0h6.036V9.788H35.67V7.244h4.26V6.032h-4.26V3.74h4.428V2.528h-5.94V11Zm7.43 0h1.476V7.424h2.388c.816 0 1.236.372 1.236 1.2V9.86c0 .336.024.792.348 1.14h1.632c-.432-.444-.492-.888-.492-1.332V8.36c0-1.044-.564-1.464-1.332-1.62.444-.096 1.356-.576 1.356-1.992 0-1.464-1.176-2.22-2.844-2.22h-3.768V11Zm1.476-4.788V3.74h2.184c.96 0 1.476.432 1.476 1.164 0 .612-.336 1.308-1.44 1.308h-2.22ZM49.849 11h1.512V6.956L55.393 11h1.968l-4.584-4.524 4.056-3.948h-1.884l-3.588 3.6v-3.6h-1.512V11Zm7.978-3.048c0 2.052 1.392 3.252 3.54 3.252 1.98 0 3.516-1.044 3.516-3.252V2.528h-1.512v5.424c0 1.356-.804 2.04-2.004 2.04-1.212 0-2.028-.732-2.028-2.04V2.528h-1.512v5.424Zm1.632-6.456h1.452V.02H59.46v1.476Zm2.34 0h1.452V.02H61.8v1.476ZM66.56 11h1.513V7.244H72.2V11h1.512V2.528H72.2v3.504h-4.128V2.528H66.56V11Zm8.907 0h5.784V9.788h-4.272v-7.26h-1.512V11Zm6.58 0h1.597V9.404h-1.596V11Zm8.904-3.204c-.324 1.332-1.236 2.196-2.448 2.196-1.608 0-2.651-1.392-2.651-3.228 0-1.776 1.055-3.228 2.688-3.228 1.091 0 1.907.672 2.34 1.908l1.463-.336c-.623-1.836-2.064-2.784-3.803-2.784-2.544 0-4.213 1.944-4.213 4.44 0 2.544 1.717 4.44 4.177 4.44 1.883 0 3.456-1.188 3.936-3.108l-1.488-.3Zm6.378 2.196c-1.896 0-2.712-1.608-2.712-3.204s.816-3.252 2.712-3.252c1.86 0 2.664 1.656 2.664 3.252 0 1.596-.804 3.204-2.664 3.204Zm0 1.212c2.904 0 4.188-2.196 4.188-4.416 0-2.196-1.284-4.464-4.188-4.464-2.952 0-4.236 2.268-4.236 4.464 0 2.22 1.284 4.416 4.236 4.416ZM102.83 11h1.404V4.076l2.34 6.924h1.728l2.328-6.936V11h1.392V2.528h-2.232l-2.352 6.96-2.364-6.96h-2.244V11Z"/></svg>